<mxfile>
    <diagram id="C2HmU_um-6lSbX04Ks15" name="Page-1">
        <mxGraphModel dx="746" dy="516" grid="1" gridSize="10" guides="1" tooltips="1" connect="1" arrows="1" fold="1" page="1" pageScale="1" pageWidth="827" pageHeight="1169" math="0" shadow="0">
            <root>
                <mxCell id="0"/>
                <mxCell id="1" parent="0"/>
                <mxCell id="3" value="" style="html=1;outlineConnect=0;whiteSpace=wrap;fillColor=#FF6666;shape=mxgraph.archimate.tech;techType=plateau" parent="1" vertex="1">
                    <mxGeometry x="175" y="20" width="285" height="200" as="geometry"/>
                </mxCell>
                <mxCell id="4" value="" style="html=1;outlineConnect=0;whiteSpace=wrap;fillColor=#FF6666;shape=mxgraph.archimate.tech;techType=plateau" parent="1" vertex="1">
                    <mxGeometry x="160" y="280" width="270" height="200" as="geometry"/>
                </mxCell>
                <mxCell id="5" value="Catalogo" style="shape=module;align=left;spacingLeft=20;align=center;verticalAlign=top;" parent="1" vertex="1">
                    <mxGeometry x="220" y="60" width="100" height="50" as="geometry"/>
                </mxCell>
                <mxCell id="6" value="Programa de &#10;busqueda" style="shape=module;align=left;spacingLeft=20;align=center;verticalAlign=top;" parent="1" vertex="1">
                    <mxGeometry x="220" y="140" width="100" height="50" as="geometry"/>
                </mxCell>
                <mxCell id="7" value="Presentacion &#10;principal de &#10;la plataforma." style="shape=module;align=left;spacingLeft=20;align=center;verticalAlign=top;" parent="1" vertex="1">
                    <mxGeometry x="200" y="380" width="100" height="50" as="geometry"/>
                </mxCell>
                <mxCell id="8" value="CLIENTE" style="text;html=1;strokeColor=#000000;fillColor=#99004D;align=center;verticalAlign=middle;whiteSpace=wrap;rounded=0;" parent="1" vertex="1">
                    <mxGeometry x="200" y="300" width="80" height="20" as="geometry"/>
                </mxCell>
                <mxCell id="9" value="SERVIDOR" style="text;html=1;strokeColor=#FFFFCC;fillColor=#99004D;align=center;verticalAlign=middle;whiteSpace=wrap;rounded=0;" parent="1" vertex="1">
                    <mxGeometry x="260" y="35" width="80" height="20" as="geometry"/>
                </mxCell>
                <mxCell id="11" value="" style="endArrow=none;html=1;" parent="1" source="4" target="3" edge="1">
                    <mxGeometry width="50" height="50" relative="1" as="geometry">
                        <mxPoint x="220" y="300" as="sourcePoint"/>
                        <mxPoint x="270" y="250" as="targetPoint"/>
                    </mxGeometry>
                </mxCell>
                <mxCell id="12" value="&amp;lt;&amp;lt;COMUNICACION&amp;gt;&amp;gt;" style="text;html=1;strokeColor=none;fillColor=none;align=center;verticalAlign=middle;whiteSpace=wrap;rounded=0;" parent="1" vertex="1">
                    <mxGeometry x="200" y="250" width="40" height="20" as="geometry"/>
                </mxCell>
                <mxCell id="14" value="&lt;font style=&quot;font-size: 9px&quot;&gt;Resultados de&lt;br&gt;la busqueda&lt;/font&gt;" style="html=1;verticalAlign=bottom;startArrow=circle;startFill=1;endArrow=open;startSize=6;endSize=8;entryX=1;entryY=0.5;entryDx=0;entryDy=0;fillColor=#000000;shadow=0;" parent="1" target="6" edge="1">
                    <mxGeometry x="-1" y="43" width="80" relative="1" as="geometry">
                        <mxPoint x="360" y="165" as="sourcePoint"/>
                        <mxPoint x="380" y="160" as="targetPoint"/>
                        <mxPoint x="40" y="-28" as="offset"/>
                    </mxGeometry>
                </mxCell>
                <mxCell id="15" value="" style="html=1;verticalAlign=bottom;endArrow=open;dashed=1;endSize=8;shadow=0;fillColor=#000000;exitX=1;exitY=0.5;exitDx=0;exitDy=0;" parent="1" source="7" edge="1">
                    <mxGeometry x="-0.4205" y="-159" relative="1" as="geometry">
                        <mxPoint x="380" y="360" as="sourcePoint"/>
                        <mxPoint x="350" y="170" as="targetPoint"/>
                        <mxPoint as="offset"/>
                    </mxGeometry>
                </mxCell>
                <mxCell id="16" value="" style="html=1;verticalAlign=bottom;endArrow=open;dashed=1;endSize=8;shadow=0;fillColor=#000000;exitX=0.19;exitY=0.02;exitDx=0;exitDy=0;exitPerimeter=0;" edge="1" parent="1" source="6" target="5">
                    <mxGeometry x="1" y="-135" relative="1" as="geometry">
                        <mxPoint x="280" y="150" as="sourcePoint"/>
                        <mxPoint x="200" y="150" as="targetPoint"/>
                        <mxPoint x="16" y="-86" as="offset"/>
                    </mxGeometry>
                </mxCell>
            </root>
        </mxGraphModel>
    </diagram>
</mxfile>